<?xml version="1.0" encoding="iso-8859-1"?>
<!-- Generator: Adobe Illustrator 19.0.0, SVG Export Plug-In . SVG Version: 6.00 Build 0)  -->
<svg version="1.1" id="Capa_1" xmlns="http://www.w3.org/2000/svg" xmlns:xlink="http://www.w3.org/1999/xlink" x="0px" y="0px"
	 viewBox="0 0 512 512" style="enable-background:new 0 0 512 512;" xml:space="preserve">
<path style="fill:#25AE88;" d="M256,0C114.617,0,0,114.617,0,256c0,52.03,15.563,100.414,42.231,140.818L0,512l119.128-39.706
	C158.72,497.399,205.639,512,256,512c141.383,0,256-114.617,256-256S397.383,0,256,0z"/>
<path style="fill:#FFFFFF;" d="M397.233,335.078V377.6c0.062,15.66-12.606,28.398-28.292,28.469c-0.892,0-1.783-0.035-2.675-0.115
	c-43.705-4.74-85.689-19.641-122.571-43.52c-34.313-21.76-63.409-50.803-85.222-85.054c-24.002-36.979-38.938-79.086-43.599-122.898
	c-1.412-15.59,10.108-29.378,25.732-30.791c0.847-0.062,1.686-0.106,2.534-0.106h42.611c14.257-0.141,26.412,10.293,28.407,24.382
	c1.801,13.612,5.138,26.968,9.94,39.83c3.902,10.364,1.404,22.042-6.391,29.908l-18.035,17.999
	c20.215,35.487,49.664,64.874,85.221,85.054l18.035-17.999c7.883-7.786,19.588-10.275,29.97-6.382
	c12.888,4.802,26.271,8.13,39.91,9.922C387.09,308.312,397.594,320.689,397.233,335.078z"/>
<g>
</g>
<g>
</g>
<g>
</g>
<g>
</g>
<g>
</g>
<g>
</g>
<g>
</g>
<g>
</g>
<g>
</g>
<g>
</g>
<g>
</g>
<g>
</g>
<g>
</g>
<g>
</g>
<g>
</g>
</svg>
